<svg width="395" height="154" viewBox="0 0 395 154" fill="none" xmlns="http://www.w3.org/2000/svg">
<path d="M124.52 135.76H120.52V147H117.1V135.76H113.1V132.84H124.52V135.76ZM135.961 147H126.081V132.84H135.601V135.74H129.381V138.4H135.261V141.14H129.381V144.08H135.961V147ZM150.69 145.04C149.45 146.48 147.57 147.38 145.19 147.38C140.83 147.38 137.57 144.34 137.57 139.9C137.57 135.36 140.93 132.46 145.25 132.46C147.23 132.46 149.37 133.18 150.55 134.54L148.23 136.86C147.59 135.98 146.45 135.56 145.37 135.56C142.99 135.56 141.29 137.4 141.29 139.9C141.29 142.48 142.95 144.24 145.31 144.24C146.65 144.24 147.71 143.64 148.31 142.8L150.69 145.04ZM164.515 147H161.095V141.08H155.575V147H152.155V132.84H155.575V138.2H161.095V132.84H164.515V147ZM180.309 147H176.429L170.729 137.74H170.669L170.749 147H167.429V132.84H171.329L177.009 142.08H177.069L176.989 132.84H180.309V147ZM197.99 139.86C197.99 144.34 194.71 147.38 190.27 147.38C185.85 147.38 182.57 144.34 182.57 139.86C182.57 135.32 185.85 132.46 190.27 132.46C194.71 132.46 197.99 135.32 197.99 139.86ZM194.33 139.86C194.33 137.38 192.67 135.54 190.27 135.54C187.87 135.54 186.23 137.38 186.23 139.86C186.23 142.42 187.89 144.26 190.27 144.26C192.65 144.26 194.33 142.42 194.33 139.86ZM209.161 147H200.241V132.84H203.681V144.02H209.161V147ZM224.923 139.86C224.923 144.34 221.643 147.38 217.203 147.38C212.783 147.38 209.503 144.34 209.503 139.86C209.503 135.32 212.783 132.46 217.203 132.46C221.643 132.46 224.923 135.32 224.923 139.86ZM221.263 139.86C221.263 137.38 219.603 135.54 217.203 135.54C214.803 135.54 213.163 137.38 213.163 139.86C213.163 142.42 214.823 144.26 217.203 144.26C219.583 144.26 221.263 142.42 221.263 139.86ZM239.755 146.14C238.375 146.86 236.475 147.36 234.295 147.36C229.775 147.36 226.515 144.36 226.515 139.9C226.515 135.36 229.875 132.46 234.195 132.46C236.415 132.46 238.475 133.2 239.655 134.34L237.495 136.8C236.835 136.04 235.695 135.48 234.315 135.48C231.915 135.48 230.155 137.36 230.155 139.9C230.155 142.5 231.695 144.36 234.475 144.36C235.275 144.36 236.015 144.24 236.615 143.98V141.4H233.915V138.64H239.755V146.14ZM245.986 147H242.546V132.84H245.986V147ZM258.793 147H248.913V132.84H258.433V135.74H252.213V138.4H258.093V141.14H252.213V144.08H258.793V147ZM270.722 134.22L268.542 136.52C267.962 135.78 266.902 135.3 266.022 135.3C265.142 135.3 264.042 135.6 264.042 136.72C264.042 137.66 264.882 137.96 266.222 138.38C268.142 139 270.622 139.82 270.622 142.64C270.622 145.9 268.002 147.36 265.202 147.36C263.182 147.36 261.142 146.62 259.902 145.32L262.142 143.04C262.822 143.9 264.082 144.54 265.202 144.54C266.242 144.54 267.162 144.14 267.162 143C267.162 141.92 266.082 141.58 264.222 140.98C262.422 140.4 260.602 139.48 260.602 136.92C260.602 133.78 263.442 132.48 266.082 132.48C267.682 132.48 269.482 133.08 270.722 134.22Z" fill="#7FABF1"/>
<line x1="0.0142851" y1="139.5" x2="105.014" y2="140.5" stroke="#3B82F6" stroke-width="3"/>
<line x1="280" y1="140.5" x2="395" y2="140.5" stroke="#3B82F6" stroke-width="3"/>
<rect x="1.5" y="1.5" width="122" height="122" stroke="#3B82F6" stroke-width="3"/>
<rect x="138.5" y="1.5" width="122" height="122" stroke="#3B82F6" stroke-width="3"/>
<rect x="271.5" y="1.5" width="122" height="122" stroke="#3B82F6" stroke-width="3"/>
<path d="M46.7578 33.6016H78.2422C83.1299 33.6016 87.5732 35.7174 91.5723 39.9492C93.7728 42.7845 94.873 45.4082 94.873 47.8203V55.6914L94.6191 55.9453H72.5293L72.2754 55.6914V51.7559C72.2754 48.0319 71.0482 46.1699 68.5938 46.1699H56.4062C53.9518 46.1699 52.7246 48.0319 52.7246 51.7559V72.4492C52.7246 75.221 53.6556 76.9984 55.5176 77.7812H68.9746C70.9001 77.7812 72.0003 76.0462 72.2754 72.5762V65.9746L72.5293 65.7207H94.6191L94.873 65.9746V77.4004C94.873 81.9072 92.2493 85.8851 87.002 89.334C84.0609 91.1113 80.4215 92 76.084 92H48.916C40.1351 92 34.0837 88.3607 30.7617 81.082C30.2539 79.3258 30 77.5485 30 75.75V49.7246C30 42.1921 34.1895 37.0293 42.5684 34.2363C44.113 33.8132 45.5094 33.6016 46.7578 33.6016Z" fill="#3B82F6"/>
<path d="M146 34.7285L146.127 34.6016H168.344C168.534 34.6016 169.423 38.1562 171.01 45.2656L177.611 73.0684H177.738L186.879 34.7285L187.006 34.6016H210.238C210.513 34.6016 211.698 39.3411 213.793 48.8203L219.633 73.0684H219.76L228.9 34.6016H251.117L251.371 34.8555L237.533 92.873L237.406 93H205.033C204.758 93 204.166 91.0957 203.256 87.2871L198.812 71.6719H198.559L192.084 93H160.092C159.817 93 159.394 91.4766 158.822 88.4297L146 34.7285Z" fill="#3B82F6"/>
<path d="M299.254 33.6016H351.686C356.087 33.6016 359.641 35.3789 362.35 38.9336C363.704 40.8379 364.381 43.6309 364.381 47.3125V58.2305C364.381 64.7474 361.249 69.1061 354.986 71.3066V71.4336L367.301 91.7461L367.047 92H344.195C343.624 91.3864 339.562 84.7425 332.008 72.0684L331.881 71.9414H321.471L321.217 72.1953V91.7461L320.963 92H299.254L299 91.7461V33.8555L299.254 33.6016ZM321.344 48.0742V57.4688H340.895C343.222 57.4688 344.661 56.6224 345.211 54.9297V50.6133C345.211 49.3014 343.899 48.4551 341.275 48.0742H321.344Z" fill="#3B82F6"/>
</svg>
