<svg width="318" height="426" viewBox="0 0 318 426" fill="none" xmlns="http://www.w3.org/2000/svg">
<path d="M272.95 92.2V149.25H257.2C250.2 114.25 227.45 93.6 191.4 93.6C168.65 93.6 150.8 102.35 137.85 119.85C126.3 135.6 120.7 155.9 120.7 180.4C120.7 208.05 128.05 231.5 143.1 250.75C157.8 270 177.75 279.8 203.3 279.8C216.25 279.8 228.15 277.35 238.3 272.45C248.45 267.9 261.75 259.85 277.5 248.3V261.6C256.5 278.75 238.65 291 224.3 298.35C209.6 306.05 193.85 309.9 177.05 309.9C150.45 309.9 127.35 300.8 108.1 282.6C88.85 264.75 79.05 239.2 79.05 206.3C79.05 172 90.95 142.6 114.75 118.1C138.55 93.6 168.65 81.35 205.4 81.35C222.55 81.35 245.3 84.85 272.95 92.2Z" fill="#E12121"/>
<path d="M241.55 155.05V150.4H281.15V155.05C276.8 156.4 273.2 159.1 270.65 163C268.1 166.9 264.35 174.4 259.4 185.35L231.65 247.45H226.1L205.85 189.1C202.7 193.15 197.9 201.7 191.3 214.9L176.75 247.45H171.05L143.6 167.5C143 165.85 142.55 163.6 138.65 159.1C136.7 156.85 134.45 155.5 132.2 155.05V150.4H161.45V155.05C159.8 155.05 159.05 155.65 159.05 157C159.05 157.9 159.35 159.1 159.8 160.45L181.25 223.15L190.25 203.2L190.4 202.75C190.55 202.6 190.7 202.3 190.7 202.15C196.1 190.3 198.8 179.95 198.8 170.95C198.8 167.35 197.9 163.9 196.25 160.45C194.45 157.15 191.3 155.35 186.8 155.05V150.4H216.05V155.05C214.4 155.5 213.65 156.1 213.65 157C213.65 157.45 213.95 158.65 214.55 160.45L236.15 222.55L250.1 191.05C253.85 182.65 255.65 174.85 255.65 167.5C255.65 160.9 252.65 155.05 244.4 155.05H241.55Z" fill="url(#paint0_linear_20_125)"/>
<path d="M154 247H318V249H154V247Z" fill="white"/>
<path d="M129 147H293V156H129V147Z" fill="white"/>
<path d="M255.5 193.5V162.766C269.5 153.674 277.167 164.21 279 170.753L268.5 198.5L262 197L258.5 195.5L255.5 193.5Z" fill="white"/>
<rect x="238" y="147" width="48" height="75" fill="white"/>
<rect x="237.626" y="221.043" width="8.08793" height="19" transform="rotate(-19.75 237.626 221.043)" fill="white"/>
<path d="M225.9 247V242.35H228C234.45 242.35 237 239.35 237 230.35V170.2C237 161.05 234.45 158.05 228 158.05H225.9V153.4H279.15C291 153.4 297.6 159.55 297.6 169.6C297.6 179.65 290.55 189.55 276.3 199.15L294.45 227.95C299.25 235.3 304.2 239.8 306.6 240.85C307.8 241.45 309.15 241.9 310.8 242.35V247H290.55C286.35 247 284.55 245.65 281.55 240.85L255.15 198.1H254.85V230.35C254.85 239.35 257.4 242.35 263.85 242.35H265.95V247H225.9ZM254.85 162.55V192.4C259.05 196 262.95 197.8 266.7 197.8C271.95 197.8 275.55 195.25 277.5 190.3C278.85 187.15 279.45 183.55 279.45 179.65C279.45 167.5 273.45 158.05 264.45 158.05C261.3 158.05 258.15 159.55 254.85 162.55Z" fill="url(#paint1_linear_20_125)"/>
<rect y="233.485" width="338" height="11.3988" transform="rotate(-40.717 0 233.485)" fill="white"/>
<rect x="48" y="220.485" width="338" height="11.3988" transform="rotate(-40.717 48 220.485)" fill="white"/>
<rect x="48" y="220.485" width="338" height="11.3988" transform="rotate(-40.717 48 220.485)" fill="white"/>
<defs>
<linearGradient id="paint0_linear_20_125" x1="205" y1="116" x2="205" y2="296" gradientUnits="userSpaceOnUse">
<stop offset="0.205679" stop-color="#003641"/>
<stop offset="0.639502" stop-color="#2C73B4"/>
</linearGradient>
<linearGradient id="paint1_linear_20_125" x1="267" y1="119" x2="267" y2="299" gradientUnits="userSpaceOnUse">
<stop offset="0.0708332" stop-color="#003641"/>
<stop offset="0.607292" stop-color="#2C73B4"/>
</linearGradient>
</defs>
</svg>
